<svg width="42" height="42" viewBox="0 0 42 42" fill="none" xmlns="http://www.w3.org/2000/svg">
<path d="M21 0C9.39919 0 0 9.39919 0 21C0 32.6008 9.39919 42 21 42C32.6008 42 42 32.6008 42 21C42 9.39919 32.6008 0 21 0ZM21 8.12903C25.1153 8.12903 28.4516 11.4653 28.4516 15.5806C28.4516 19.696 25.1153 23.0323 21 23.0323C16.8847 23.0323 13.5484 19.696 13.5484 15.5806C13.5484 11.4653 16.8847 8.12903 21 8.12903ZM21 37.2581C16.0294 37.2581 11.5754 35.0056 8.59476 31.4831C10.1867 28.4855 13.3028 26.4194 16.9355 26.4194C17.1387 26.4194 17.3419 26.4532 17.5367 26.5125C18.6375 26.8681 19.7891 27.0968 21 27.0968C22.2109 27.0968 23.371 26.8681 24.4633 26.5125C24.6581 26.4532 24.8613 26.4194 25.0645 26.4194C28.6972 26.4194 31.8133 28.4855 33.4052 31.4831C30.4246 35.0056 25.9706 37.2581 21 37.2581Z" fill="#FC7124"/>
</svg>
